<?xml version="1.0" standalone="no"?>
<!DOCTYPE svg PUBLIC "-//W3C//DTD SVG 20010904//EN"
 "http://www.w3.org/TR/2001/REC-SVG-20010904/DTD/svg10.dtd">
<svg version="1.0" xmlns="http://www.w3.org/2000/svg"
 width="64.000000pt" height="64.000000pt" viewBox="0 0 64.000000 64.000000"
 preserveAspectRatio="xMidYMid meet">

<g transform="translate(0.000000,64.000000) scale(0.100000,-0.100000)"
fill="#000000" stroke="none">
<path d="M302 525 c-26 -30 -36 -64 -23 -79 19 -22 7 -33 -51 -46 -29 -6 -63
-20 -75 -32 -12 -11 -35 -20 -50 -20 -26 0 -73 -32 -73 -49 0 -14 57 -39 88
-39 16 0 56 16 88 35 32 19 61 35 65 35 12 0 20 -71 21 -187 0 -41 2 -43 29
-43 l29 0 0 109 c0 61 4 112 9 115 4 3 28 -5 52 -19 106 -58 105 -57 149 -35
46 23 47 28 21 62 -16 19 -27 24 -51 20 -24 -3 -38 2 -59 22 -18 17 -43 28
-74 32 -47 7 -58 19 -35 42 9 9 7 19 -10 42 -12 16 -22 34 -22 40 0 14 -13 12
-28 -5z m27 -39 c12 -14 5 -66 -8 -66 -11 0 -30 51 -24 66 7 18 17 18 32 0z
m86 -102 c17 -2 32 -9 33 -14 6 -16 58 -40 85 -40 14 0 30 -7 37 -15 10 -12 6
-17 -23 -31 -34 -16 -37 -16 -69 4 -84 53 -93 56 -165 57 -65 0 -76 -3 -117
-32 -47 -33 -96 -42 -125 -24 -22 14 4 41 39 41 15 0 40 10 55 22 36 28 127
49 180 42 22 -4 54 -8 70 -10z m-91 -70 c9 -23 7 -194 -1 -194 -5 0 -8 12 -9
28 -1 15 -4 62 -9 105 -5 50 -4 77 3 77 5 0 13 -7 16 -16z"/>
</g>
</svg>
